<?xml version="1.0" encoding="utf-8"?>
<!-- Generator: Adobe Illustrator 16.0.0, SVG Export Plug-In . SVG Version: 6.00 Build 0)  -->
<!DOCTYPE svg PUBLIC "-//W3C//DTD SVG 1.1//EN" "http://www.w3.org/Graphics/SVG/1.1/DTD/svg11.dtd">
<svg version="1.1" id="Livello_1" xmlns="http://www.w3.org/2000/svg" xmlns:xlink="http://www.w3.org/1999/xlink" x="0px" y="0px"
	 width="16px" height="16px" viewBox="12 12 16 16" enable-background="new 12 12 16 16" xml:space="preserve">
<g>
	<g>
		<path d="M24.791,22.223c-0.016-0.044-0.029-0.081-0.046-0.109c-0.017-0.024-0.039-0.034-0.066-0.033s-0.053,0.011-0.078,0.033
			c-0.172,0.169-0.356,0.283-0.553,0.344c-0.196,0.06-0.438,0.065-0.724,0.016c-0.286-0.05-0.631-0.15-1.037-0.306
			c-0.404-0.154-0.904-0.36-1.497-0.624c-0.175-0.072-0.344-0.142-0.505-0.206c-0.163-0.063-0.317-0.125-0.466-0.183
			c0.188-0.301,0.375-0.646,0.561-1.039c0.187-0.391,0.37-0.842,0.547-1.351l-0.002-0.009c0.124-0.492,0.658-2.346,0.762-2.892
			c0.01-0.055,0.005-0.106-0.017-0.154c-0.021-0.046-0.052-0.083-0.093-0.107c-0.055-0.026-0.108-0.044-0.159-0.056
			c-0.054-0.012-0.113-0.005-0.18,0.02c-0.045,0.021-0.085,0.051-0.116,0.088c-0.032,0.038-0.05,0.083-0.056,0.133
			c-0.016,0.11-0.046,0.291-0.094,0.543c-0.047,0.25-0.169,0.757-0.251,1.086v-0.003c-0.11,0.408-0.236,0.821-0.38,1.238
			c-0.144,0.417-0.302,0.825-0.475,1.226c-0.174,0.401-0.365,0.767-0.575,1.094c-0.362-0.122-0.681-0.214-0.954-0.277
			c-0.273-0.063-0.503-0.11-0.689-0.142c-0.22-0.033-0.407-0.054-0.559-0.065c-0.224-0.011-0.423-0.001-0.598,0.028
			c-0.174,0.028-0.329,0.071-0.467,0.126c-0.137,0.053-0.255,0.116-0.356,0.188c-0.101,0.07-0.186,0.147-0.254,0.228
			c-0.166,0.182-0.279,0.395-0.339,0.637c-0.027,0.133-0.03,0.257-0.007,0.373c0.023,0.117,0.066,0.224,0.127,0.321
			c0.062,0.098,0.142,0.183,0.24,0.257c0.098,0.073,0.208,0.131,0.33,0.174c0.204,0.074,0.399,0.121,0.586,0.141
			c0.187,0.02,0.354,0.028,0.5,0.025c0.168-0.007,0.325-0.025,0.473-0.057c0.287-0.056,0.545-0.136,0.776-0.238
			c0.231-0.104,0.44-0.222,0.627-0.351c0.186-0.13,0.354-0.274,0.502-0.432c0.149-0.157,0.283-0.321,0.401-0.491
			c0.282,0.104,0.562,0.213,0.838,0.327c0.276,0.113,0.545,0.227,0.807,0.34s0.516,0.224,0.76,0.329
			c0.246,0.104,0.477,0.201,0.695,0.289c0.23,0.094,0.438,0.161,0.619,0.201c0.183,0.041,0.345,0.064,0.486,0.069
			c0.142,0.008,0.262-0.001,0.361-0.021c0.1-0.021,0.18-0.05,0.24-0.083c0.081-0.034,0.159-0.096,0.232-0.184
			c0.075-0.09,0.118-0.188,0.128-0.293C24.81,22.324,24.807,22.267,24.791,22.223z M18.791,21.644
			c-0.125,0.133-0.259,0.256-0.404,0.369c-0.155,0.119-0.322,0.224-0.501,0.315c-0.179,0.091-0.366,0.163-0.559,0.217
			c-0.193,0.055-0.391,0.087-0.592,0.1c-0.201,0.012-0.396,0-0.585-0.037c-0.125-0.023-0.244-0.058-0.355-0.102
			c-0.111-0.045-0.207-0.102-0.287-0.172c-0.079-0.071-0.138-0.153-0.175-0.248c-0.038-0.094-0.043-0.201-0.017-0.325
			c0.028-0.142,0.076-0.266,0.14-0.368c0.064-0.104,0.138-0.191,0.219-0.265c0.083-0.072,0.17-0.132,0.264-0.18
			c0.095-0.047,0.188-0.083,0.281-0.111c0.216-0.064,0.455-0.089,0.714-0.072c0.146,0.007,0.339,0.026,0.579,0.061
			c0.241,0.032,0.51,0.09,0.81,0.166c0.135,0.04,0.269,0.078,0.399,0.119c0.132,0.04,0.264,0.082,0.398,0.125
			C19.025,21.374,18.915,21.511,18.791,21.644z"/>
		<path d="M23.503,18.288c0.077,0.029,0.129,0.07,0.155,0.121c0.028,0.047,0.034,0.099,0.017,0.155l-0.006,0.02
			c-0.068,0.213-0.332,0.432-0.791,0.655c-0.426,0.21-0.697,0.296-0.815,0.259c-0.072-0.027-0.097-0.077-0.075-0.146
			c0.019-0.056,0.066-0.106,0.141-0.15c0.169-0.108,0.376-0.283,0.619-0.522C23.06,18.358,23.312,18.227,23.503,18.288z"/>
	</g>
	<circle fill="none" stroke="#000000" stroke-miterlimit="10" cx="20" cy="20.001" r="7.281"/>
</g>
</svg>
