<?xml version="1.0" encoding="utf-8"?>
<!-- Generator: Adobe Illustrator 16.0.0, SVG Export Plug-In . SVG Version: 6.00 Build 0)  -->
<!DOCTYPE svg PUBLIC "-//W3C//DTD SVG 1.1//EN" "http://www.w3.org/Graphics/SVG/1.1/DTD/svg11.dtd">
<svg version="1.1" id="Livello_1" xmlns="http://www.w3.org/2000/svg" xmlns:xlink="http://www.w3.org/1999/xlink" x="0px" y="0px"
	 width="40px" height="40px" viewBox="0 0 40 40" enable-background="new 0 0 40 40" xml:space="preserve">
<g>
	<g>
		<path d="M32.628,25.856c-0.041-0.117-0.081-0.213-0.122-0.288c-0.044-0.063-0.103-0.093-0.174-0.09
			c-0.073,0.003-0.141,0.033-0.207,0.091c-0.453,0.443-0.939,0.745-1.458,0.904c-0.519,0.16-1.154,0.174-1.908,0.044
			c-0.753-0.132-1.664-0.399-2.731-0.806s-2.383-0.954-3.946-1.644c-0.461-0.191-0.906-0.373-1.332-0.543
			c-0.428-0.172-0.836-0.333-1.228-0.483c0.494-0.794,0.987-1.707,1.478-2.739c0.492-1.031,0.974-2.219,1.444-3.562l-0.004-0.022
			c0.322-1.295,1.734-6.184,2.006-7.621c0.025-0.146,0.01-0.279-0.044-0.404c-0.056-0.124-0.138-0.219-0.247-0.285
			c-0.143-0.067-0.283-0.115-0.421-0.146s-0.295-0.013-0.472,0.052c-0.12,0.056-0.222,0.134-0.306,0.233
			c-0.084,0.1-0.132,0.217-0.145,0.35c-0.041,0.29-0.123,0.768-0.246,1.432c-0.123,0.658-0.449,1.994-0.661,2.862l-0.002-0.009
			c-0.29,1.077-0.624,2.164-1.001,3.262s-0.795,2.175-1.253,3.232c-0.458,1.058-0.962,2.019-1.513,2.883
			c-0.956-0.322-1.794-0.566-2.514-0.731c-0.72-0.166-1.325-0.29-1.817-0.373c-0.579-0.086-1.071-0.145-1.473-0.174
			c-0.59-0.026-1.115-0.001-1.575,0.076c-0.46,0.077-0.87,0.188-1.231,0.329c-0.361,0.143-0.674,0.309-0.94,0.498
			c-0.264,0.189-0.488,0.39-0.668,0.601c-0.438,0.479-0.736,1.039-0.893,1.677c-0.073,0.351-0.08,0.679-0.019,0.986
			c0.061,0.307,0.174,0.589,0.337,0.846c0.163,0.256,0.374,0.482,0.631,0.676c0.257,0.194,0.547,0.347,0.869,0.459
			c0.538,0.194,1.053,0.316,1.545,0.369c0.492,0.052,0.931,0.074,1.318,0.067c0.443-0.017,0.859-0.065,1.249-0.146
			c0.754-0.149,1.436-0.36,2.045-0.632c0.611-0.271,1.161-0.579,1.652-0.922c0.49-0.345,0.932-0.724,1.325-1.139
			c0.394-0.415,0.746-0.847,1.057-1.296c0.744,0.276,1.48,0.564,2.208,0.864c0.729,0.301,1.439,0.6,2.129,0.897
			c0.691,0.298,1.358,0.587,2.003,0.865c0.645,0.277,1.255,0.532,1.83,0.766c0.605,0.246,1.15,0.422,1.633,0.528
			s0.909,0.168,1.281,0.184c0.371,0.018,0.688-0.003,0.952-0.058c0.263-0.056,0.474-0.129,0.634-0.219
			c0.215-0.089,0.419-0.25,0.614-0.484c0.197-0.235,0.309-0.492,0.336-0.771C32.677,26.124,32.667,25.975,32.628,25.856z
			 M16.813,24.329c-0.327,0.351-0.682,0.675-1.066,0.976c-0.408,0.311-0.848,0.586-1.32,0.828c-0.472,0.24-0.964,0.432-1.474,0.573
			c-0.51,0.143-1.03,0.229-1.559,0.261c-0.529,0.031-1.044,0-1.544-0.096c-0.331-0.063-0.642-0.153-0.936-0.27
			s-0.545-0.268-0.754-0.453c-0.209-0.187-0.364-0.403-0.463-0.65c-0.099-0.248-0.114-0.535-0.044-0.86
			c0.077-0.374,0.201-0.698,0.37-0.97c0.17-0.273,0.363-0.505,0.579-0.696s0.447-0.349,0.695-0.473
			c0.248-0.122,0.494-0.222,0.738-0.295c0.57-0.17,1.198-0.233,1.884-0.19c0.383,0.016,0.892,0.068,1.525,0.158
			c0.634,0.088,1.346,0.235,2.136,0.44c0.356,0.102,0.707,0.205,1.052,0.312s0.694,0.216,1.049,0.329
			C17.43,23.619,17.141,23.979,16.813,24.329z"/>
		<path d="M29.233,15.486c0.203,0.077,0.34,0.183,0.41,0.319c0.074,0.125,0.088,0.262,0.04,0.41l-0.016,0.052
			c-0.179,0.562-0.872,1.137-2.082,1.726c-1.122,0.553-1.838,0.78-2.147,0.682c-0.191-0.073-0.258-0.202-0.199-0.385
			c0.047-0.148,0.171-0.28,0.37-0.394c0.445-0.287,0.988-0.747,1.631-1.376C28.064,15.671,28.729,15.326,29.233,15.486z"/>
	</g>
	<circle fill="none" stroke="#000000" stroke-miterlimit="10" cx="20" cy="20" r="19.19"/>
</g>
</svg>
